# File created by Blade
# Date/Time:  Fri Jan 16 17:53:05 2015
# Frame Rate: 120.000 fps
#------------------------------------------------------
:FULLY-SPECIFIED
:DEGREES
2027
root -3.312339 35.348470 -11.573834 -2.281026 3.368092 -9.457657
Spine 1.559337 -10.623450 6.759014
Head 4.745823 2.773388 -0.564662
LeftShoulder -19.613731 16.081445 -5.965871
LeftArm 26.286742 -25.550391 -73.561132
LeftForeArm 5.306723 0.000000 126.988644
LeftHand 2.681648 -0.000000 11.983150
LeftHandThumb1 -26.253704 0.000000 33.147579
RightShoulder -5.885359 -6.515850 1.906390
RightArm 2.012715 -24.213990 74.927078
RightForeArm -15.526235 -0.000000 18.849972
RightHand 0.456551 0.000000 1.092055
RightHandThumb1 -24.326973 -0.000000 -32.862282
LeftUpLeg 10.537857 4.002357 -0.882003
LeftLeg -9.880348 -0.000000 0.000000
LeftFoot -13.795953 25.279576 -5.393935
LeftToeBase 18.852830 -0.000000 -0.000000
RightUpLeg -0.108669 -0.667739 12.274499
RightLeg 4.754850 -0.000000 -0.000000
RightFoot -3.531304 -30.350691 0.187559
RightToeBase -0.557550 -0.000000 0.000000
2028
root -3.327515 35.347665 -11.562532 -2.321328 3.414337 -9.453053
Spine 1.579288 -10.637970 6.730109
Head 4.794315 2.874355 -0.555101
LeftShoulder -19.642846 16.088003 -5.970150
LeftArm 26.272591 -25.703441 -73.591581
LeftForeArm 5.415419 -0.000000 126.994647
LeftHand 2.678770 -0.000000 12.060520
LeftHandThumb1 -26.253704 0.000000 33.147579
RightShoulder -5.895312 -6.530215 1.948479
RightArm 2.037191 -24.285999 74.861258
RightForeArm -15.450302 -0.000000 18.902300
RightHand 0.545787 -0.000000 1.156622
RightHandThumb1 -24.326973 -0.000000 -32.862282
LeftUpLeg 10.519728 4.163949 -0.834140
LeftLeg -9.734126 -0.000000 0.000000
LeftFoot -13.871972 25.078160 -5.298266
LeftToeBase 18.912157 -0.000000 -0.000000
RightUpLeg 0.109642 -0.738963 12.287004
RightLeg 4.390149 -0.000000 -0.000000
RightFoot -3.343972 -30.351734 0.067142
RightToeBase 0.051578 -0.000000 -0.000000
2029
root -3.338827 35.347775 -11.552930 -2.334638 3.442837 -9.437401
Spine 1.570818 -10.639499 6.709231
Head 4.850218 2.983406 -0.562355
LeftShoulder -19.689461 16.090502 -6.015245
LeftArm 26.264139 -25.857076 -73.600670
LeftForeArm 5.402722 -0.000000 127.038227
LeftHand 2.570827 -0.000000 12.073875
LeftHandThumb1 -26.253704 0.000000 33.147579
RightShoulder -5.904322 -6.542178 1.985010
RightArm 2.073663 -24.351616 74.777122
RightForeArm -15.667535 -0.000000 18.922690
RightHand 0.545764 0.000000 1.444265
RightHandThumb1 -24.326973 -0.000000 -32.862282
LeftUpLeg 10.530276 4.162531 -0.825402
LeftLeg -9.702713 -0.000000 0.000000
LeftFoot -13.940652 25.045140 -5.364473
LeftToeBase 18.955548 -0.000000 -0.000000
RightUpLeg 0.278965 -0.872477 12.277881
RightLeg 4.071394 -0.000000 -0.000000
RightFoot -3.175360 -30.258137 -0.035521
RightToeBase 0.539254 -0.000000 -0.000000
2030
root -3.351561 35.347763 -11.545710 -2.333011 3.463426 -9.425199
Spine 1.553059 -10.611042 6.697032
Head 4.896682 3.078085 -0.574803
LeftShoulder -19.704140 16.107918 -6.048490
LeftArm 26.249293 -26.057580 -73.646016
LeftForeArm 5.375209 -0.000000 127.076680
LeftHand 2.581469 -0.000000 11.910316
LeftHandThumb1 -26.253704 0.000000 33.147579
RightShoulder -5.934028 -6.545382 2.004446
RightArm 2.097471 -24.442650 74.734459
RightForeArm -15.560354 -0.000000 18.932082
RightHand 0.622708 -0.000000 1.239657
RightHandThumb1 -24.326973 -0.000000 -32.862282
LeftUpLeg 10.527843 4.140314 -0.815987
LeftLeg -9.680525 -0.000000 0.000000
LeftFoot -13.958260 25.047520 -5.353122
LeftToeBase 18.955570 -0.000000 -0.000000
RightUpLeg 0.426520 -0.999406 12.275256
RightLeg 3.758674 -0.000000 -0.000000
RightFoot -3.000352 -30.152997 -0.097132
RightToeBase 0.964079 -0.000000 -0.000000
2031
root -3.362614 35.348039 -11.540124 -2.335905 3.483334 -9.412113
Spine 1.548863 -10.588075 6.687600
Head 4.935658 3.146347 -0.582958
LeftShoulder -19.712206 16.109109 -6.064528
LeftArm 26.211245 -26.267640 -73.734105
LeftForeArm 5.489478 0.000000 127.097930
LeftHand 2.609722 -0.000000 12.105795
LeftHandThumb1 -26.253704 0.000000 33.147579
RightShoulder -5.954800 -6.524425 2.016241
RightArm 2.104188 -24.539717 74.696933
RightForeArm -15.605411 -0.000000 18.950469
RightHand 0.597843 -0.000000 1.140461
RightHandThumb1 -24.326973 -0.000000 -32.862282
LeftUpLeg 10.519609 4.116449 -0.809074
LeftLeg -9.643798 -0.000000 0.000000
LeftFoot -14.003506 25.050722 -5.378312
LeftToeBase 19.018322 -0.000000 -0.000000
RightUpLeg 0.589036 -1.103351 12.267234
RightLeg 3.431353 -0.000000 -0.000000
RightFoot -2.796615 -30.047062 -0.308081
RightToeBase 1.564551 -0.000000 -0.000000
2032
root -3.377397 35.347951 -11.533322 -2.349413 3.491013 -9.389738
Spine 1.562638 -10.549277 6.644274
Head 4.968921 3.216909 -0.554926
LeftShoulder -19.710085 16.099361 -6.065223
LeftArm 26.165998 -26.523228 -73.809018
LeftForeArm 5.615386 -0.000000 127.151941
LeftHand 2.604014 -0.000000 12.040400
LeftHandThumb1 -26.253704 0.000000 33.147579
RightShoulder -5.975203 -6.526392 2.056875
RightArm 2.122270 -24.566457 74.647492
RightForeArm -15.794080 -0.000000 18.983769
RightHand 0.613964 -0.000000 1.302995
RightHandThumb1 -24.326973 -0.000000 -32.862282
LeftUpLeg 10.526334 4.124144 -0.801435
LeftLeg -9.605744 -0.000000 0.000000
LeftFoot -14.038890 25.024123 -5.392935
LeftToeBase 19.027331 -0.000000 -0.000000
RightUpLeg 0.751716 -1.236336 12.256892
RightLeg 3.126285 -0.000000 -0.000000
RightFoot -2.699379 -29.943081 -0.309697
RightToeBase 2.094386 -0.000000 -0.000000
2033
root -3.392704 35.348058 -11.528073 -2.337455 3.490204 -9.377535
Spine 1.545151 -10.519349 6.620185
Head 5.005691 3.304062 -0.528011
LeftShoulder -19.749130 16.109472 -6.097300
LeftArm 26.145862 -26.777510 -73.899529
LeftForeArm 5.517669 -0.000000 127.227233
LeftHand 2.547323 0.000000 11.930020
LeftHandThumb1 -26.253704 0.000000 33.147579
RightShoulder -5.975996 -6.506834 2.084770
RightArm 2.109756 -24.586492 74.614247
RightForeArm -15.963004 -0.000000 19.015991
RightHand 0.605870 0.000000 1.071881
RightHandThumb1 -24.326973 -0.000000 -32.862282
LeftUpLeg 10.510477 4.109128 -0.787675
LeftLeg -9.578480 -0.000000 0.000000
LeftFoot -14.073596 25.029194 -5.398790
LeftToeBase 19.072550 -0.000000 -0.000000
RightUpLeg 0.875943 -1.396110 12.254962
RightLeg 2.841914 -0.000000 -0.000000
RightFoot -2.550243 -29.797927 -0.382123
RightToeBase 2.531913 -0.000000 -0.000000
2034
root -3.411063 35.347761 -11.519585 -2.381261 3.521942 -9.355641
Spine 1.608304 -10.488807 6.550306
Head 5.005591 3.354085 -0.464134
LeftShoulder -19.752060 16.073452 -6.066871
LeftArm 26.098352 -27.021040 -74.005510
LeftForeArm 5.430963 -0.000000 127.287132
LeftHand 2.554798 -0.000000 12.027458
LeftHandThumb1 -26.253704 0.000000 33.147579
RightShoulder -6.024448 -6.475625 2.133885
RightArm 2.118114 -24.618238 74.578402
RightForeArm -16.057346 0.000000 19.030670
RightHand 0.619963 -0.000000 1.009408
RightHandThumb1 -24.326973 -0.000000 -32.862282
LeftUpLeg 10.576384 4.005687 -0.780434
LeftLeg -9.595668 -0.000000 0.000000
LeftFoot -14.074969 25.076606 -5.421127
LeftToeBase 19.082844 -0.000000 -0.000000
RightUpLeg 1.081638 -1.530726 12.245820
RightLeg 2.510199 -0.000000 -0.000000
RightFoot -2.409007 -29.699305 -0.439035
RightToeBase 3.166936 -0.000000 -0.000000
2035
root -3.427548 35.347407 -11.517494 -2.377639 3.562554 -9.334416
Spine 1.625633 -10.455778 6.498949
Head 4.995664 3.394517 -0.413087
LeftShoulder -19.752627 16.027082 -6.048726
LeftArm 26.040084 -27.268160 -74.111759
LeftForeArm 5.444762 -0.000000 127.364112
LeftHand 2.561147 -0.000000 12.000485
LeftHandThumb1 -26.253704 0.000000 33.147579
RightShoulder -6.072096 -6.461763 2.187291
RightArm 2.138635 -24.717599 74.505639
RightForeArm -16.137481 0.000000 19.078840
RightHand 0.627374 -0.000000 1.183606
RightHandThumb1 -24.326973 -0.000000 -32.862282
LeftUpLeg 10.524072 4.014962 -0.765657
LeftLeg -9.494530 -0.000000 0.000000
LeftFoot -14.142322 25.001438 -5.404002
LeftToeBase 19.096134 -0.000000 -0.000000
RightUpLeg 1.218268 -1.638506 12.231099
RightLeg 2.206357 -0.000000 -0.000000
RightFoot -2.278612 -29.611054 -0.473085
RightToeBase 4.001286 -0.000000 -0.000000
2036
root -3.438846 35.347381 -11.517783 -2.341302 3.538502 -9.327865
Spine 1.609483 -10.365740 6.515063
Head 4.988425 3.463132 -0.419381
LeftShoulder -19.768033 15.996598 -6.101102
LeftArm 25.999763 -27.534507 -74.205730
LeftForeArm 5.381304 -0.000000 127.455410
LeftHand 2.533685 0.000000 11.965063
LeftHandThumb1 -26.253704 0.000000 33.147579
RightShoulder -6.096873 -6.454936 2.192477
RightArm 2.149665 -24.873107 74.436446
RightForeArm -16.091148 -0.000000 19.127792
RightHand 0.662132 -0.000000 1.366992
RightHandThumb1 -24.326973 -0.000000 -32.862282
LeftUpLeg 10.460110 4.052441 -0.750523
LeftLeg -9.432311 -0.000000 0.000000
LeftFoot -14.195898 24.976360 -5.409905
LeftToeBase 19.141907 -0.000000 -0.000000
RightUpLeg 1.291946 -1.836184 12.217529
RightLeg 1.960232 -0.000000 -0.000000
RightFoot -2.146817 -29.354607 -0.479827
RightToeBase 4.812764 -0.000000 -0.000000
2037
root -3.452893 35.347660 -11.513541 -2.304606 3.512391 -9.317922
Spine 1.578225 -10.274939 6.508491
Head 4.997957 3.538736 -0.381728
LeftShoulder -19.791284 16.004310 -6.121954
LeftArm 25.959843 -27.792242 -74.312696
LeftForeArm 5.299054 -0.000000 127.550856
LeftHand 2.396744 -0.000000 12.175371
LeftHandThumb1 -26.253704 0.000000 33.147579
RightShoulder -6.112786 -6.471287 2.229627
RightArm 2.147657 -24.838285 74.383826
RightForeArm -16.227203 0.000000 19.165491
RightHand 0.668864 -0.000000 0.735933
RightHandThumb1 -24.326973 -0.000000 -32.862282
LeftUpLeg 10.418914 4.095157 -0.731932
LeftLeg -9.401790 -0.000000 0.000000
LeftFoot -14.232929 24.940243 -5.406911
LeftToeBase 19.173517 -0.000000 -0.000000
RightUpLeg 1.374957 -1.948601 12.205194
RightLeg 1.704455 -0.000000 -0.000000
RightFoot -2.014504 -29.142942 -0.475161
RightToeBase 5.719621 -0.000000 -0.000000
2038
root -3.470786 35.347267 -11.508043 -2.295591 3.503207 -9.313508
Spine 1.586277 -10.196984 6.483813
Head 4.984526 3.595611 -0.329060
LeftShoulder -19.799679 15.993022 -6.115739
LeftArm 25.915795 -28.110120 -74.471484
LeftForeArm 5.447216 -0.000000 127.624833
LeftHand 2.419738 -0.000000 12.096022
LeftHandThumb1 -26.253704 0.000000 33.147579
RightShoulder -6.143375 -6.451817 2.269555
RightArm 2.140299 -24.878086 74.340181
RightForeArm -16.241703 -0.000000 19.167802
RightHand 0.704466 -0.000000 0.655191
RightHandThumb1 -24.326973 -0.000000 -32.862282
LeftUpLeg 10.413540 4.121342 -0.699729
LeftLeg -9.393273 -0.000000 0.000000
LeftFoot -14.277142 24.918166 -5.437897
LeftToeBase 19.238217 -0.000000 -0.000000
RightUpLeg 1.497871 -2.056820 12.206713
RightLeg 1.419560 -0.000000 -0.000000
RightFoot -1.884920 -29.020893 -0.434499
RightToeBase 6.626011 -0.000000 -0.000000
